Coordinates
version=1
nRows=16
nColumns=63
inDegrees=yes

Units are S.I. units (second, meters, Newtons, ...)
If the header above contains a line with 'inDegrees', this indicates whether rotational values are in degrees (yes) or radians (no).

endheader
time	pelvis_tilt	pelvis_list	pelvis_rotation	pelvis_tx	pelvis_ty	pelvis_tz	hip_flexion_r	hip_adduction_r	hip_rotation_r	knee_angle_r	knee_angle_r_beta	ankle_angle_r	subtalar_angle_r	mtp_angle_r	hip_flexion_l	hip_adduction_l	hip_rotation_l	knee_angle_l	knee_angle_l_beta	ankle_angle_l	subtalar_angle_l	mtp_angle_l	L5_S1_Flex_Ext	L5_S1_Lat_Bending	L5_S1_axial_rotation	L4_L5_Flex_Ext	L4_L5_Lat_Bending	L4_L5_axial_rotation	L3_L4_Flex_Ext	L3_L4_Lat_Bending	L3_L4_axial_rotation	L2_L3_Flex_Ext	L2_L3_Lat_Bending	L2_L3_axial_rotation	L1_L2_Flex_Ext	L1_L2_Lat_Bending	L1_L2_axial_rotation	L1_T12_Flex_Ext	L1_T12_Lat_Bending	L1_T12_axial_rotation	Abs_r3	Abs_r2	Abs_r1	Abs_t1	Abs_t2	neck_flexion	neck_bending	neck_rotation	arm_flex_r	arm_add_r	arm_rot_r	elbow_flex_r	pro_sup_r	wrist_flex_r	wrist_dev_r	arm_flex_l	arm_add_l	arm_rot_l	elbow_flex_l	pro_sup_l	wrist_flex_l	wrist_dev_l
6.583333	1.681014	-2.867020	82.107207	0.207259	0.369799	0.962931	6.998079	3.674849	-2.851421	15.356879	0.268028	24.309221	-9.212520	0.000000	5.015195	-4.668731	-4.161375	11.086443	0.193495	29.880863	12.831714	0.000000	-0.553576	0.784694	5.585250	-1.028046	1.043643	5.934328	-0.909470	1.907904	5.934328	-0.632682	1.907904	4.887094	-0.514051	1.600147	4.538015	-0.316313	1.215490	4.188937	-3.954140	8.876612	31.063484	0.000000	0.000000	-1.744924	-2.247714	-31.971873	-7.747592	-27.927328	-53.074374	107.396151	71.594589	-7.237765	10.723687	67.530160	16.562394	170.069043	0.088399	1.560273	-77.015938	-23.977777
6.600000	1.533811	-3.085044	81.584462	0.208659	0.369663	0.962677	7.314551	3.694857	-1.891321	15.383202	0.268488	24.184823	-9.772061	0.000000	5.107897	-4.639463	-4.826582	10.970576	0.191473	29.905228	12.949348	0.000000	-0.537137	0.756755	5.470160	-0.997517	1.006484	5.812045	-0.882462	1.839974	5.812045	-0.613894	1.839974	4.786390	-0.498785	1.543175	4.444505	-0.306920	1.172214	4.102620	-3.836715	8.560565	30.423390	0.000000	0.000000	-1.310478	-2.473516	-30.772430	-6.945350	-26.940083	-49.396254	107.610349	72.906771	-7.994756	9.710021	66.957631	16.128227	171.316975	0.095309	1.609922	-76.041538	-23.890694
6.616667	1.331425	-3.330789	81.128746	0.210161	0.369393	0.962293	7.659141	3.652203	-1.132720	15.428383	0.269276	24.181440	-10.119892	0.000000	5.232941	-4.562688	-5.444506	10.837507	0.189150	29.947621	13.078880	0.000000	-0.517114	0.725107	5.337847	-0.960332	0.964392	5.671463	-0.849566	1.763025	5.671463	-0.591009	1.763025	4.670616	-0.480192	1.478638	4.337001	-0.295479	1.123190	4.003385	-3.693693	8.202553	29.687505	0.000000	0.000000	-0.807572	-2.629000	-29.303955	-5.933492	-26.198116	-45.360078	108.058907	74.132451	-8.603836	9.059163	66.633066	15.418543	172.206116	0.104638	1.645771	-72.664460	-23.827529
6.633333	1.084411	-3.594498	80.759310	0.211708	0.368996	0.961777	8.004662	3.566622	-0.458012	15.461477	0.269854	24.222941	-10.476818	0.000000	5.391009	-4.445509	-6.000593	10.706595	0.186865	30.020045	13.225170	0.000000	-0.494090	0.691238	5.182793	-0.917574	0.919347	5.506718	-0.811740	1.680677	5.506718	-0.564695	1.680677	4.534944	-0.458812	1.409573	4.211020	-0.282323	1.070728	3.887095	-3.529232	7.819425	28.825142	0.000000	0.000000	-0.267539	-2.723402	-27.577071	-4.582285	-25.755912	-40.865462	108.693610	75.231980	-8.962881	8.853906	66.560102	14.430674	172.654040	0.117206	1.669808	-67.052511	-23.752737
6.650000	0.808374	-3.854179	80.505134	0.213200	0.368513	0.961115	8.327793	3.437559	0.058853	15.492997	0.270404	24.314129	-10.780285	0.000000	5.561321	-4.296475	-6.494243	10.579182	0.184642	30.127689	13.421351	0.000000	-0.469127	0.656951	5.000252	-0.871216	0.873745	5.312768	-0.770729	1.597311	5.312768	-0.536165	1.597311	4.375221	-0.435631	1.339655	4.062705	-0.268059	1.017617	3.750189	-3.350927	7.431564	27.809902	0.000000	0.000000	0.278606	-2.708478	-25.594726	-2.811803	-25.585443	-35.929249	109.406286	76.325711	-8.848227	9.038413	66.720039	13.203285	172.522229	0.133489	1.680177	-59.474546	-23.622471
6.666667	0.516425	-4.075255	80.365872	0.214559	0.368027	0.960307	8.589872	3.270849	0.436918	15.519628	0.270869	24.433162	-11.062663	0.000000	5.701260	-4.115991	-6.881767	10.443426	0.182272	30.243374	13.612789	0.000000	-0.445331	0.624285	4.796073	-0.827023	0.830299	5.095828	-0.731634	1.517886	5.095828	-0.508968	1.517886	4.196564	-0.413534	1.273041	3.896809	-0.254462	0.967017	3.597055	-3.180952	7.062034	26.674320	0.000000	0.000000	0.784601	-2.605557	-23.444213	-0.609176	-25.636459	-30.651378	110.082588	77.283521	-8.169128	9.398476	67.040915	11.829188	171.949974	0.153571	1.676093	-51.035978	-23.467030
6.683333	0.233170	-4.266169	80.301605	0.215809	0.367521	0.959331	8.802341	3.096164	0.717238	15.549068	0.271382	24.584351	-11.304301	0.000000	5.807408	-3.932540	-7.219716	10.295106	0.179683	30.371272	13.822984	0.000000	-0.420010	0.595321	4.584573	-0.780001	0.791776	4.871108	-0.690034	1.447462	4.871108	-0.480029	1.447462	4.011501	-0.390021	1.213978	3.724965	-0.239994	0.922151	3.438429	-3.000089	6.734385	25.498018	0.000000	0.000000	1.267063	-2.434327	-21.249641	1.976802	-25.810937	-25.207328	110.697806	78.088722	-6.984533	9.965058	67.539382	10.367769	170.804361	0.176846	1.660010	-41.325844	-23.257973
6.700000	-0.030413	-4.406912	80.336758	0.216880	0.367047	0.958224	8.942681	2.921509	0.913889	15.574701	0.271830	24.742031	-11.563934	0.000000	5.870356	-3.751157	-7.465968	10.147016	0.177099	30.493313	14.053730	0.000000	-0.396065	0.570925	4.368954	-0.735532	0.759331	4.642014	-0.650695	1.388148	4.642014	-0.452662	1.388148	3.822835	-0.367786	1.164231	3.549775	-0.226311	0.884363	3.276715	-2.829050	6.458421	24.298811	0.000000	0.000000	1.749873	-2.181793	-19.101091	4.926347	-26.020840	-19.750300	111.142876	79.194545	-5.372793	10.350211	68.136231	8.915537	169.448250	0.201700	1.641022	-31.648907	-23.021828
6.716667	-0.273918	-4.490638	80.479533	0.217707	0.366604	0.957052	9.013971	2.737822	0.999554	15.614868	0.272531	24.918455	-11.811537	0.000000	5.891400	-3.562179	-7.558690	10.006546	0.174647	30.594841	14.237043	0.000000	-0.375961	0.551862	4.154580	-0.698197	0.733976	4.414241	-0.617666	1.341797	4.414241	-0.429686	1.341797	3.635257	-0.349117	1.125357	3.375596	-0.214824	0.854834	3.115935	-2.685451	6.242772	23.106527	0.000000	0.000000	2.265514	-1.910341	-17.064314	8.163492	-26.210230	-14.399954	111.354650	80.433415	-3.482728	10.463127	68.808120	7.534983	168.115538	0.225351	1.614240	-22.427610	-22.783393
6.733333	-0.476918	-4.546914	80.680009	0.218346	0.366159	0.955832	9.039239	2.577617	1.025297	15.653082	0.273198	25.076558	-12.070050	0.000000	5.886363	-3.393869	-7.526090	9.861716	0.172119	30.681147	14.380780	0.000000	-0.355399	0.539058	3.968963	-0.660012	0.716948	4.217023	-0.583886	1.310666	4.217023	-0.406186	1.310666	3.472842	-0.330024	1.099248	3.224782	-0.203075	0.835001	2.976722	-2.538582	6.097935	22.074179	0.000000	0.000000	2.840023	-1.587727	-15.279560	11.473594	-26.314656	-9.410343	111.373455	81.918599	-1.527240	10.358335	69.509999	6.359627	166.794259	0.250704	1.596229	-13.958648	-22.556097
6.750000	-0.626538	-4.553684	80.952143	0.218716	0.365758	0.954629	9.003291	2.443721	0.962788	15.704049	0.274087	25.216495	-12.327071	0.000000	5.845564	-3.255409	-7.392539	9.732751	0.169869	30.760205	14.530863	0.000000	-0.338548	0.535708	3.813703	-0.628717	0.712491	4.052060	-0.556200	1.302520	4.052060	-0.386926	1.302520	3.336991	-0.314375	1.092416	3.098634	-0.193446	0.829812	2.860278	-2.418212	6.060035	21.210674	0.000000	0.000000	3.453548	-1.299299	-13.764453	14.795870	-26.295223	-4.838733	111.118029	83.464037	0.475440	10.114159	70.196795	5.450001	165.715093	0.274198	1.590796	-6.867342	-22.388835
6.766667	-0.736454	-4.520610	81.282191	0.218826	0.365382	0.953474	8.924564	2.319032	0.798620	15.775743	0.275339	25.363389	-12.537262	0.000000	5.772660	-3.125818	-7.087099	9.609460	0.167717	30.812181	14.565403	0.000000	-0.324887	0.538627	3.695257	-0.603348	0.716374	3.926211	-0.533757	1.309618	3.926211	-0.371314	1.309618	3.233350	-0.301690	1.098368	3.002397	-0.185641	0.834333	2.771443	-2.320637	6.093058	20.551912	0.000000	0.000000	4.099364	-0.998127	-12.577608	17.990477	-26.104727	-0.724498	110.540764	85.029998	2.334228	9.726721	70.883443	4.855529	164.866942	0.294914	1.567550	-0.878059	-22.296172
6.783333	-0.804249	-4.451876	81.653532	0.218704	0.365034	0.952384	8.812313	2.210867	0.558676	15.868128	0.276951	25.527183	-12.706664	0.000000	5.666492	-3.010245	-6.620165	9.491623	0.165660	30.834651	14.476925	0.000000	-0.314823	0.547310	3.612373	-0.584658	0.727923	3.838146	-0.517223	1.330730	3.838146	-0.359811	1.330730	3.160826	-0.292345	1.116075	2.935053	-0.179890	0.847784	2.709280	-2.248751	6.191284	20.090935	0.000000	0.000000	4.760456	-0.717445	-11.728638	21.008133	-25.683491	2.915815	109.594543	86.502926	4.080425	9.340746	71.569869	4.588496	164.140567	0.312678	1.527039	4.167036	-22.279886
6.800000	-0.826079	-4.357719	82.079232	0.218380	0.364706	0.951365	8.671093	2.130544	0.257946	15.965873	0.278657	25.704624	-12.856796	0.000000	5.543191	-2.922231	-6.043849	9.394344	0.163962	30.827473	14.325449	0.000000	-0.307798	0.560613	3.554434	-0.571612	0.745616	3.776586	-0.505682	1.363075	3.776586	-0.351783	1.363075	3.110130	-0.285822	1.143203	2.887978	-0.175876	0.868390	2.665826	-2.198572	6.341771	19.768697	0.000000	0.000000	5.452224	-0.444413	-11.182445	23.790578	-24.991098	6.101467	108.271849	87.596127	5.644443	9.054890	72.260730	4.625472	163.520329	0.326718	1.467933	8.382298	-22.331085
6.816667	-0.818957	-4.253637	82.529848	0.217922	0.364393	0.950406	8.521188	2.066769	-0.092838	16.067100	0.280424	25.914084	-12.937910	0.000000	5.411174	-2.849647	-5.383101	9.311498	0.162516	30.771503	14.082047	0.000000	-0.301801	0.576142	3.517089	-0.560474	0.766269	3.736907	-0.495828	1.400832	3.736907	-0.344928	1.400832	3.077453	-0.280252	1.174869	2.857635	-0.172449	0.892444	2.637817	-2.155733	6.517437	19.560995	0.000000	0.000000	6.133492	-0.275730	-10.948412	26.292555	-23.996799	8.812274	106.586590	88.335359	7.050537	8.896745	72.921760	4.920261	163.059520	0.337686	1.397434	11.521476	-22.433133
6.833333	-0.792352	-4.148564	82.971870	0.217427	0.364097	0.949484	8.370893	2.026920	-0.411899	16.161799	0.282077	26.127622	-13.018333	0.000000	5.262282	-2.790440	-4.683861	9.219319	0.160907	30.632619	13.729117	0.000000	-0.296647	0.592450	3.494987	-0.550903	0.787958	3.713424	-0.487361	1.440483	3.713424	-0.339038	1.440483	3.058114	-0.275466	1.208124	2.839677	-0.169504	0.917705	2.621240	-2.118919	6.701911	19.438069	0.000000	0.000000	6.854129	-0.208759	-10.907277	28.477490	-22.705360	11.030446	104.599992	88.633434	8.387896	8.883748	73.522433	5.393911	162.825292	0.345961	1.324512	13.369185	-22.569951
